<?xml version="1.0" encoding="UTF-8"?>
<svg width="1200" height="630" viewBox="0 0 1200 630" fill="none" xmlns="http://www.w3.org/2000/svg">
  <defs>
    <linearGradient id="bg" x1="186" y1="32" x2="1020" y2="632" gradientUnits="userSpaceOnUse">
      <stop stop-color="#071225"/>
      <stop offset="0.6" stop-color="#0E2238"/>
      <stop offset="1" stop-color="#16324B"/>
    </linearGradient>
    <linearGradient id="iconBg" x1="80" y1="52" x2="432" y2="456" gradientUnits="userSpaceOnUse">
      <stop stop-color="#0A1830"/>
      <stop offset="0.55" stop-color="#0E365A"/>
      <stop offset="1" stop-color="#1B5D85"/>
    </linearGradient>
    <radialGradient id="iconGlowA" cx="0" cy="0" r="1" gradientUnits="userSpaceOnUse" gradientTransform="translate(132 116) rotate(52) scale(224)">
      <stop stop-color="#93E3FF" stop-opacity="0.44"/>
      <stop offset="1" stop-color="#93E3FF" stop-opacity="0"/>
    </radialGradient>
    <radialGradient id="iconGlowB" cx="0" cy="0" r="1" gradientUnits="userSpaceOnUse" gradientTransform="translate(408 124) rotate(136) scale(200)">
      <stop stop-color="#FFB36A" stop-opacity="0.28"/>
      <stop offset="1" stop-color="#FFB36A" stop-opacity="0"/>
    </radialGradient>
    <linearGradient id="glassA" x1="166" y1="134" x2="356" y2="348" gradientUnits="userSpaceOnUse">
      <stop stop-color="#F4FBFF"/>
      <stop offset="1" stop-color="#8FC5E1"/>
    </linearGradient>
    <linearGradient id="glassB" x1="178" y1="154" x2="330" y2="326" gradientUnits="userSpaceOnUse">
      <stop stop-color="#BEE4FB"/>
      <stop offset="1" stop-color="#5D96BE"/>
    </linearGradient>
  </defs>

  <rect width="1200" height="630" fill="url(#bg)"/>

  <g transform="translate(390 105) scale(0.8203125)">
    <rect width="512" height="512" rx="120" fill="url(#iconBg)"/>
    <rect width="512" height="512" rx="120" fill="url(#iconGlowA)"/>
    <rect width="512" height="512" rx="120" fill="url(#iconGlowB)"/>
    <g opacity="0.96">
      <rect x="120" y="118" width="88" height="88" rx="26" fill="url(#glassA)"/>
      <rect x="212" y="118" width="88" height="88" rx="26" fill="url(#glassB)"/>
      <rect x="304" y="118" width="88" height="88" rx="26" fill="url(#glassA)"/>
      <rect x="120" y="212" width="88" height="88" rx="26" fill="url(#glassB)"/>
      <rect x="212" y="212" width="88" height="88" rx="26" fill="url(#glassA)"/>
      <rect x="304" y="212" width="88" height="88" rx="26" fill="url(#glassB)"/>
      <rect x="120" y="306" width="88" height="88" rx="26" fill="url(#glassA)"/>
      <rect x="212" y="306" width="88" height="88" rx="26" fill="url(#glassB)"/>
      <rect x="304" y="306" width="88" height="88" rx="26" fill="url(#glassA)"/>
    </g>
  </g>
</svg>
