<svg width="1200" height="630" viewBox="0 0 1200 630" fill="none" xmlns="http://www.w3.org/2000/svg">
  <defs>
    <linearGradient id="bg" x1="104" y1="24" x2="1051" y2="639" gradientUnits="userSpaceOnUse">
      <stop stop-color="#071225"/>
      <stop offset="0.5" stop-color="#0F2238"/>
      <stop offset="1" stop-color="#16324B"/>
    </linearGradient>
    <radialGradient id="glowA" cx="0" cy="0" r="1" gradientUnits="userSpaceOnUse" gradientTransform="translate(156 110) rotate(31.218) scale(390 262)">
      <stop stop-color="#9FD7E4" stop-opacity="0.34"/>
      <stop offset="1" stop-color="#9FD7E4" stop-opacity="0"/>
    </radialGradient>
    <radialGradient id="glowB" cx="0" cy="0" r="1" gradientUnits="userSpaceOnUse" gradientTransform="translate(1014 120) rotate(152.8) scale(332 226)">
      <stop stop-color="#F4A56B" stop-opacity="0.22"/>
      <stop offset="1" stop-color="#F4A56B" stop-opacity="0"/>
    </radialGradient>
    <radialGradient id="glowC" cx="0" cy="0" r="1" gradientUnits="userSpaceOnUse" gradientTransform="translate(936 520) rotate(-162.4) scale(340 232)">
      <stop stop-color="#69C4F3" stop-opacity="0.22"/>
      <stop offset="1" stop-color="#69C4F3" stop-opacity="0"/>
    </radialGradient>
    <linearGradient id="glass" x1="280" y1="172" x2="888" y2="470" gradientUnits="userSpaceOnUse">
      <stop stop-color="white" stop-opacity="0.13"/>
      <stop offset="1" stop-color="white" stop-opacity="0.03"/>
    </linearGradient>
    <linearGradient id="chip" x1="0" y1="0" x2="1" y2="1">
      <stop stop-color="#7BBBCB" stop-opacity="0.28"/>
      <stop offset="1" stop-color="#4A8192" stop-opacity="0.08"/>
    </linearGradient>
  </defs>

  <rect width="1200" height="630" fill="url(#bg)"/>
  <rect width="1200" height="630" fill="url(#glowA)"/>
  <rect width="1200" height="630" fill="url(#glowB)"/>
  <rect width="1200" height="630" fill="url(#glowC)"/>

  <g opacity="0.92">
    <rect x="214" y="118" width="772" height="394" rx="42" fill="url(#glass)" stroke="rgba(170,214,255,0.22)"/>
    <rect x="248" y="152" width="704" height="326" rx="30" fill="rgba(8,20,35,0.26)" stroke="rgba(176,218,255,0.12)"/>
  </g>

  <g opacity="0.96">
    <circle cx="600" cy="315" r="116" fill="rgba(255,255,255,0.05)" stroke="rgba(162,212,231,0.26)"/>
    <circle cx="600" cy="315" r="82" fill="rgba(255,255,255,0.02)" stroke="rgba(162,212,231,0.18)" stroke-dasharray="8 10"/>
    <circle cx="600" cy="315" r="44" fill="#74B7C8" fill-opacity="0.16" stroke="#A8D8E6" stroke-opacity="0.36"/>

    <circle cx="676" cy="243" r="14" fill="#F4A56B"/>
    <circle cx="728" cy="319" r="11" fill="#E4F3FF"/>
    <circle cx="664" cy="395" r="10" fill="#6AC4F2"/>
    <circle cx="528" cy="401" r="10" fill="#7EBFCC"/>
    <circle cx="480" cy="315" r="12" fill="#DDEFFD"/>
    <circle cx="528" cy="229" r="11" fill="#7EC1CF"/>

    <path d="M600 199C646 199 688 218 718 249" stroke="rgba(228,243,255,0.42)" stroke-width="2"/>
    <path d="M718 381C688 412 646 431 600 431" stroke="rgba(228,243,255,0.42)" stroke-width="2"/>
    <path d="M482 381C452 350 434 307 434 263" stroke="rgba(228,243,255,0.42)" stroke-width="2"/>
    <path d="M482 249C512 218 554 199 600 199" stroke="rgba(228,243,255,0.42)" stroke-width="2"/>
  </g>

  <g opacity="0.88">
    <rect x="324" y="470" width="146" height="18" rx="9" fill="url(#chip)" stroke="rgba(123,187,203,0.26)"/>
    <rect x="490" y="470" width="102" height="18" rx="9" fill="url(#chip)" stroke="rgba(123,187,203,0.26)"/>
    <rect x="612" y="470" width="188" height="18" rx="9" fill="url(#chip)" stroke="rgba(123,187,203,0.26)"/>
  </g>

  <g opacity="0.6">
    <circle cx="913" cy="190" r="56" fill="rgba(255,255,255,0.03)" stroke="rgba(170,214,255,0.12)"/>
    <circle cx="282" cy="424" r="34" fill="rgba(255,255,255,0.02)" stroke="rgba(170,214,255,0.1)"/>
  </g>
</svg>
